# xmcd
# 
# Track frame offsets:
#     150
#     9807
#     23442
#     46830
#     58455
#     82225
#     96487
#     111067
#     124255
#     143713
#     159100
#     170262
#     186312
#     202952
#     218852
#     233914
#     247324
#     259754
#     272081
#     284936
#     295936
# 
# Disc length: 4122
# 
# Revision: 0
# Processed by: cddbd v1.5.2PL0 Copyright (c) Steve Scherf et al.
# Submitted via: fre:ac v1.0.17
# 
DISCID=3c101815
DTITLE=Various Artist - 100% TexMex
DYEAR=0
DGENRE=Country
TTITLE0=Richie Valens - La Bamba
TTITLE1=Texas Tornados - (Hey Baby) Que Paso
TTITLE2=Flaco Jimenez ft. Ry Cooder - The Girls from Texas
TTITLE3=Freddy Fender - Before the next Teardrop falls
TTITLE4=Sir Douglas Quintet - Mendocino
TTITLE5=Los Lobos - Anselma
TTITLE6=Texas Tornados - Laredo Rose
TTITLE7=Freddy Fender - Wasted Days and wasted Nights
TTITLE8=Flaco Jimenez ft. Ry Cooder - Poquita Fe
TTITLE9=Steve Jordan - Flor de Mexico
TTITLE10=Freddy Fender - Mathilda
TTITLE11=Flaco Jimenez ft. Emmylou Harris - West Texas Waltz
TTITLE12=Texas Tornados - A Man can cry
TTITLE13=Los Lobos - La Pistola y el Corazon
TTITLE14=Texas Tornados - She never spoke Spanish to me
TTITLE15=Santiago Jimenez - El Corrido de Emilio Cabrerra
TTITLE16=Flaco Jimenez ft. Fred Ojeda - La Tumba sera el Final
TTITLE17=Texas Tornados - Adios Mexico
TTITLE18=Ruben Vela - Lo nuestro termino
TTITLE19=Flaco Jimenez ft. Linda Ronstadt - El Puente roto
TTITLE20=Los Lobos - La Bamba
EXTD=TCD 2825
EXTT0=
EXTT1=
EXTT2=
EXTT3=
EXTT4=
EXTT5=
EXTT6=
EXTT7=
EXTT8=
EXTT9=
EXTT10=
EXTT11=
EXTT12=
EXTT13=
EXTT14=
EXTT15=\n\n
EXTT16=
EXTT17=
EXTT18=
EXTT19=
EXTT20=
PLAYORDER=
